<svg xmlns="http://www.w3.org/2000/svg" viewBox="0 0 100 100">
  <!-- 배경 원형 -->
  <circle cx="50" cy="50" r="48" fill="#1e293b" stroke="#f97316" stroke-width="2"/>
  
  <!-- 메인 불꽃 -->
  <path d="M50 25 C45 15, 35 20, 40 35 C30 30, 25 40, 35 50 C20 45, 15 60, 30 70 C35 75, 45 75, 50 65 C55 75, 65 75, 70 70 C85 60, 80 45, 65 50 C75 40, 70 30, 60 35 C65 20, 55 15, 50 25 Z" fill="#f97316"/>
  
  <!-- 내부 불꽃 -->
  <path d="M50 35 C47 30, 42 32, 44 40 C40 38, 38 43, 42 48 C38 46, 36 52, 42 58 C44 60, 48 60, 50 55 C52 60, 56 60, 58 58 C64 52, 62 46, 58 48 C62 43, 60 38, 56 40 C58 32, 53 30, 50 35 Z" fill="#fbbf24"/>
  
  <!-- 하이라이트 -->
  <ellipse cx="46" cy="42" rx="4" ry="8" fill="#fde047" opacity="0.8"/>
  
  <!-- 부족 문양 (작은 점들) -->
  <circle cx="30" cy="30" r="2" fill="#f97316" opacity="0.6"/>
  <circle cx="70" cy="30" r="2" fill="#f97316" opacity="0.6"/>
  <circle cx="25" cy="70" r="2" fill="#f97316" opacity="0.6"/>
  <circle cx="75" cy="70" r="2" fill="#f97316" opacity="0.6"/>
</svg> 